<?xml version="1.0" encoding="UTF-8"?>
<svg id="Layer_2" data-name="Layer 2" xmlns="http://www.w3.org/2000/svg" viewBox="0 0 224.54 224.54">
  <defs>
    <style>
      .cls-1 {
        fill: #fff;
        stroke-width: 0px;
      }
    </style>
  </defs>
  <g id="Layer_1-2" data-name="Layer 1">
    <g>
      <g>
        <path class="cls-1" d="m31.23,113.56c0,1.02-.21,1.97-.62,2.86-.41.89-.96,1.67-1.65,2.34-.69.67-1.49,1.19-2.4,1.58-.91.38-1.87.57-2.89.57h-2.15c-1.02,0-1.98-.19-2.89-.57-.91-.38-1.71-.91-2.4-1.58-.69-.67-1.24-1.45-1.65-2.34-.41-.89-.62-1.84-.62-2.86v-1.19l2.69-.44v1.63c0,.67.14,1.29.41,1.87.27.58.64,1.08,1.09,1.52s.99.78,1.6,1.03c.61.25,1.24.38,1.91.38h1.88c.67,0,1.3-.12,1.9-.38s1.13-.59,1.59-1.03.82-.95,1.09-1.52c.27-.58.41-1.2.41-1.87v-.9c0-1.03-.2-1.88-.6-2.57s-.94-1.26-1.61-1.74c-.67-.48-1.42-.89-2.26-1.22-.84-.33-1.71-.67-2.6-1-.89-.33-1.76-.7-2.6-1.11-.84-.4-1.6-.91-2.26-1.51-.67-.6-1.2-1.35-1.61-2.22s-.61-1.95-.61-3.23v-.56c0-1.02.19-1.97.57-2.86.38-.89.91-1.67,1.57-2.34.67-.67,1.45-1.19,2.35-1.57s1.85-.57,2.87-.57h1.92c1.01,0,1.97.19,2.86.57s1.67.91,2.34,1.57c.67.67,1.19,1.45,1.58,2.34.38.89.57,1.84.57,2.86v.77l-2.69.44v-1.21c0-.67-.12-1.29-.38-1.87-.25-.58-.59-1.08-1.02-1.51-.43-.43-.94-.77-1.51-1.02-.58-.25-1.2-.38-1.87-.38h-1.67c-.67,0-1.29.13-1.87.38-.58.25-1.08.59-1.52,1.02-.44.43-.78.94-1.03,1.51-.25.58-.38,1.2-.38,1.87v.56c0,.96.2,1.77.6,2.42.4.65.94,1.21,1.61,1.68.67.47,1.42.87,2.26,1.21.84.34,1.71.69,2.6,1.04.89.35,1.76.74,2.6,1.17.84.42,1.6.95,2.26,1.56.67.62,1.2,1.37,1.61,2.26.4.89.61,1.97.61,3.25v.9Z"/>
        <path class="cls-1" d="m43.2,93.14v27.34h-2.69v-27.34h-7.13v-2.57h16.96v2.57h-7.13Z"/>
        <path class="cls-1" d="m49.6,120.49v-3.21h3.21v3.21h-3.21Z"/>
        <path class="cls-1" d="m79.74,116.42c-.38.89-.91,1.67-1.58,2.34-.67.67-1.45,1.19-2.34,1.58s-1.84.57-2.86.57h-.86c-1.01,0-1.97-.19-2.87-.57-.9-.38-1.68-.91-2.35-1.58-.67-.67-1.19-1.45-1.58-2.34-.38-.89-.57-1.84-.57-2.86v-1.19l2.69-.44v1.63c0,.67.12,1.29.38,1.87.25.58.59,1.08,1.03,1.52.44.44.95.78,1.52,1.03s1.2.38,1.87.38h.6c.65,0,1.27-.12,1.86-.38s1.09-.59,1.52-1.03.77-.95,1.02-1.52c.25-.58.38-1.2.38-1.87v-22.99h2.69v22.99c0,1.02-.19,1.97-.57,2.86Z"/>
        <path class="cls-1" d="m96.45,113.52h-9.47l-1.96,6.97h-2.79l8.76-29.91h1.42l8.8,29.91h-2.77l-1.98-6.97Zm-8.74-2.57h8.03l-3.94-13.79-.08-1.11-.08,1.11-3.92,13.79Z"/>
        <path class="cls-1" d="m122.4,120.49v-20.5l-.19,1.27-6.95,19.23h-1.42l-7.01-19.23-.17-1.27v20.5h-2.69v-29.91h1.4l9.07,24.53.08,1.11.08-1.11,9.05-24.53h1.42v29.91h-2.69Z"/>
        <path class="cls-1" d="m130.84,120.49v-29.91h16.83v2.57h-14.14v11.12h11.45v2.57h-11.45v11.1h14.14v2.57h-16.83Z"/>
        <path class="cls-1" d="m168.13,113.56c0,1.02-.21,1.97-.62,2.86-.41.89-.96,1.67-1.65,2.34-.69.67-1.49,1.19-2.4,1.58-.91.38-1.87.57-2.89.57h-2.15c-1.02,0-1.98-.19-2.89-.57-.91-.38-1.71-.91-2.4-1.58-.69-.67-1.24-1.45-1.65-2.34-.41-.89-.62-1.84-.62-2.86v-1.19l2.69-.44v1.63c0,.67.14,1.29.41,1.87.27.58.64,1.08,1.09,1.52s.99.78,1.6,1.03c.61.25,1.24.38,1.91.38h1.88c.67,0,1.3-.12,1.9-.38s1.13-.59,1.59-1.03.82-.95,1.09-1.52c.27-.58.41-1.2.41-1.87v-.9c0-1.03-.2-1.88-.6-2.57s-.94-1.26-1.61-1.74c-.67-.48-1.42-.89-2.26-1.22-.84-.33-1.71-.67-2.6-1-.89-.33-1.76-.7-2.6-1.11-.84-.4-1.6-.91-2.26-1.51-.67-.6-1.2-1.35-1.61-2.22s-.61-1.95-.61-3.23v-.56c0-1.02.19-1.97.57-2.86.38-.89.91-1.67,1.57-2.34.67-.67,1.45-1.19,2.35-1.57s1.85-.57,2.87-.57h1.92c1.01,0,1.97.19,2.86.57s1.67.91,2.34,1.57c.67.67,1.19,1.45,1.58,2.34.38.89.57,1.84.57,2.86v.77l-2.69.44v-1.21c0-.67-.12-1.29-.38-1.87-.25-.58-.59-1.08-1.02-1.51-.43-.43-.94-.77-1.51-1.02-.58-.25-1.2-.38-1.87-.38h-1.67c-.67,0-1.29.13-1.87.38-.58.25-1.08.59-1.52,1.02-.44.43-.78.94-1.03,1.51-.25.58-.38,1.2-.38,1.87v.56c0,.96.2,1.77.6,2.42.4.65.94,1.21,1.61,1.68.67.47,1.42.87,2.26,1.21.84.34,1.71.69,2.6,1.04.89.35,1.76.74,2.6,1.17.84.42,1.6.95,2.26,1.56.67.62,1.2,1.37,1.61,2.26.4.89.61,1.97.61,3.25v.9Z"/>
        <path class="cls-1" d="m173.49,99.77h-1.08v-9.2h3.21l-2.13,9.2Z"/>
        <path class="cls-1" d="m196.49,113.56c0,1.02-.21,1.97-.62,2.86-.41.89-.96,1.67-1.65,2.34-.69.67-1.49,1.19-2.4,1.58-.91.38-1.87.57-2.89.57h-2.15c-1.02,0-1.98-.19-2.89-.57-.91-.38-1.71-.91-2.4-1.58-.69-.67-1.24-1.45-1.65-2.34-.41-.89-.62-1.84-.62-2.86v-1.19l2.69-.44v1.63c0,.67.14,1.29.41,1.87.27.58.64,1.08,1.09,1.52s.99.78,1.6,1.03c.61.25,1.24.38,1.91.38h1.88c.67,0,1.3-.12,1.9-.38s1.13-.59,1.59-1.03.82-.95,1.09-1.52c.27-.58.41-1.2.41-1.87v-.9c0-1.03-.2-1.88-.6-2.57s-.94-1.26-1.61-1.74c-.67-.48-1.42-.89-2.26-1.22-.84-.33-1.71-.67-2.6-1-.89-.33-1.76-.7-2.6-1.11-.84-.4-1.6-.91-2.26-1.51-.67-.6-1.2-1.35-1.61-2.22s-.61-1.95-.61-3.23v-.56c0-1.02.19-1.97.57-2.86.38-.89.91-1.67,1.57-2.34.67-.67,1.45-1.19,2.35-1.57s1.85-.57,2.87-.57h1.92c1.01,0,1.97.19,2.86.57s1.67.91,2.34,1.57c.67.67,1.19,1.45,1.58,2.34.38.89.57,1.84.57,2.86v.77l-2.69.44v-1.21c0-.67-.12-1.29-.38-1.87-.25-.58-.59-1.08-1.02-1.51-.43-.43-.94-.77-1.51-1.02-.58-.25-1.2-.38-1.87-.38h-1.67c-.67,0-1.29.13-1.87.38-.58.25-1.08.59-1.52,1.02-.44.43-.78.94-1.03,1.51-.25.58-.38,1.2-.38,1.87v.56c0,.96.2,1.77.6,2.42.4.65.94,1.21,1.61,1.68.67.47,1.42.87,2.26,1.21.84.34,1.71.69,2.6,1.04.89.35,1.76.74,2.6,1.17.84.42,1.6.95,2.26,1.56.67.62,1.2,1.37,1.61,2.26.4.89.61,1.97.61,3.25v.9Z"/>
        <path class="cls-1" d="m31.23,156.99c0,1.02-.21,1.97-.62,2.86-.41.89-.96,1.67-1.65,2.34-.69.67-1.49,1.19-2.4,1.58-.91.38-1.87.57-2.89.57h-2.15c-1.02,0-1.98-.19-2.89-.57-.91-.38-1.71-.91-2.4-1.58-.69-.67-1.24-1.45-1.65-2.34-.41-.89-.62-1.84-.62-2.86v-1.19l2.69-.44v1.63c0,.67.14,1.29.41,1.87.27.58.64,1.08,1.09,1.52s.99.78,1.6,1.03c.61.25,1.24.38,1.91.38h1.88c.67,0,1.3-.12,1.9-.38s1.13-.59,1.59-1.03.82-.95,1.09-1.52c.27-.58.41-1.2.41-1.87v-.9c0-1.03-.2-1.88-.6-2.57s-.94-1.26-1.61-1.74c-.67-.48-1.42-.89-2.26-1.22-.84-.33-1.71-.67-2.6-1-.89-.33-1.76-.7-2.6-1.11-.84-.4-1.6-.91-2.26-1.51-.67-.6-1.2-1.35-1.61-2.22s-.61-1.95-.61-3.23v-.56c0-1.02.19-1.97.57-2.86.38-.89.91-1.67,1.57-2.34.67-.67,1.45-1.19,2.35-1.57s1.85-.57,2.87-.57h1.92c1.01,0,1.97.19,2.86.57s1.67.91,2.34,1.57c.67.67,1.19,1.45,1.58,2.34.38.89.57,1.84.57,2.86v.77l-2.69.44v-1.21c0-.67-.12-1.29-.38-1.87-.25-.58-.59-1.08-1.02-1.51-.43-.43-.94-.77-1.51-1.02-.58-.25-1.2-.38-1.87-.38h-1.67c-.67,0-1.29.13-1.87.38-.58.25-1.08.59-1.52,1.02-.44.43-.78.94-1.03,1.51-.25.58-.38,1.2-.38,1.87v.56c0,.96.2,1.77.6,2.42.4.65.94,1.21,1.61,1.68.67.47,1.42.87,2.26,1.21.84.34,1.71.69,2.6,1.04.89.35,1.76.74,2.6,1.17.84.42,1.6.95,2.26,1.56.67.62,1.2,1.37,1.61,2.26.4.89.61,1.97.61,3.25v.9Z"/>
        <path class="cls-1" d="m51.81,159.74c-.35.86-.83,1.62-1.44,2.27-.61.65-1.33,1.19-2.16,1.6-.83.41-1.71.65-2.66.72l2.73,6.15h-2.69l-2.73-6.15c-1.02,0-1.97-.19-2.87-.57s-1.68-.91-2.35-1.58c-.67-.67-1.19-1.45-1.57-2.34-.38-.89-.57-1.84-.57-2.86v-16.06c0-1.02.19-1.97.57-2.86.38-.89.91-1.67,1.57-2.34.67-.67,1.45-1.19,2.35-1.57s1.85-.57,2.87-.57h2.13c1.02,0,1.97.19,2.86.57.89.38,1.67.91,2.34,1.57.67.67,1.19,1.45,1.57,2.34.38.89.57,1.84.57,2.86v16.06c0,.97-.17,1.89-.52,2.75Zm-2.17-18.81c0-.67-.12-1.29-.38-1.87-.25-.58-.59-1.08-1.02-1.51-.43-.43-.93-.77-1.51-1.02-.58-.25-1.2-.38-1.87-.38h-1.88c-.67,0-1.29.13-1.87.38-.58.25-1.08.59-1.52,1.02-.44.43-.78.94-1.03,1.51-.25.58-.38,1.2-.38,1.87v16.06c0,.67.12,1.29.38,1.87.25.58.59,1.08,1.03,1.52.44.44.95.78,1.52,1.03s1.2.38,1.87.38h1.88c.67,0,1.29-.12,1.87-.38s1.08-.59,1.51-1.03c.43-.44.77-.95,1.02-1.52.25-.58.38-1.2.38-1.87v-16.06Z"/>
        <path class="cls-1" d="m73.51,159.85c-.38.89-.91,1.67-1.57,2.34-.67.67-1.45,1.19-2.34,1.58-.89.38-1.84.57-2.86.57h-2.13c-1.02,0-1.97-.19-2.87-.57s-1.68-.91-2.35-1.58c-.67-.67-1.19-1.45-1.57-2.34-.38-.89-.57-1.84-.57-2.86v-22.99h2.69v22.99c0,.67.12,1.29.38,1.87.25.58.59,1.08,1.03,1.52.44.44.95.78,1.52,1.03s1.2.38,1.87.38h1.88c.67,0,1.29-.12,1.87-.38s1.08-.59,1.51-1.03c.43-.44.77-.95,1.02-1.52.25-.58.38-1.2.38-1.87v-22.99h2.69v22.99c0,1.02-.19,1.97-.57,2.86Z"/>
        <path class="cls-1" d="m90.66,156.95h-9.47l-1.96,6.97h-2.79l8.76-29.91h1.42l8.8,29.91h-2.77l-1.98-6.97Zm-8.74-2.57h8.03l-3.94-13.79-.08-1.11-.08,1.11-3.92,13.79Z"/>
        <path class="cls-1" d="m112.25,163.92l-8.11-12.77h-3.69v12.77h-2.69v-29.91h9.49c1.02,0,1.97.19,2.86.57.89.38,1.67.91,2.34,1.57.67.67,1.19,1.45,1.57,2.35.38.9.57,1.85.57,2.87v2.42c0,1.02-.19,1.97-.57,2.87-.38.9-.91,1.68-1.57,2.35-.67.67-1.45,1.19-2.34,1.57-.89.38-1.84.57-2.86.57l8.11,12.77h-3.11Zm-.36-22.55c0-.67-.12-1.29-.38-1.87-.25-.58-.59-1.08-1.02-1.52-.43-.44-.93-.78-1.51-1.03-.58-.25-1.2-.38-1.87-.38h-6.67v12.01h6.67c.67,0,1.29-.13,1.87-.38.58-.25,1.08-.59,1.51-1.03.43-.44.77-.95,1.02-1.52.25-.58.38-1.2.38-1.87v-2.42Z"/>
        <path class="cls-1" d="m119.42,163.92v-29.91h16.83v2.57h-14.14v11.12h11.45v2.57h-11.45v11.1h14.14v2.57h-16.83Z"/>
        <path class="cls-1" d="m30.66,203.28c-.38.89-.91,1.67-1.57,2.34s-1.45,1.19-2.34,1.58c-.89.38-1.84.57-2.86.57h-2.13c-1.02,0-1.97-.19-2.87-.57-.9-.38-1.68-.91-2.35-1.58s-1.19-1.45-1.57-2.34c-.38-.89-.57-1.84-.57-2.86v-16.06c0-1.02.19-1.97.57-2.86.38-.89.91-1.67,1.57-2.34.67-.67,1.45-1.19,2.35-1.57s1.85-.57,2.87-.57h2.13c1.02,0,1.97.19,2.86.57.89.38,1.67.91,2.34,1.57.67.67,1.19,1.45,1.57,2.34.38.89.57,1.84.57,2.86v1.21l-2.69.42v-1.63c0-.67-.12-1.29-.38-1.87-.25-.58-.59-1.08-1.02-1.51-.43-.43-.93-.77-1.51-1.02-.58-.25-1.2-.38-1.87-.38h-1.88c-.67,0-1.29.13-1.87.38-.58.25-1.08.59-1.52,1.02-.44.43-.78.94-1.03,1.51-.25.58-.38,1.2-.38,1.87v16.06c0,.67.12,1.29.38,1.87s.59,1.08,1.03,1.52c.44.44.95.78,1.52,1.03s1.2.38,1.87.38h1.88c.67,0,1.29-.12,1.87-.38s1.08-.59,1.51-1.03c.43-.44.77-.95,1.02-1.52s.38-1.2.38-1.87v-1.63l2.69.44v1.19c0,1.01-.19,1.97-.57,2.86Z"/>
        <path class="cls-1" d="m47.37,200.38h-9.47l-1.96,6.97h-2.79l8.76-29.91h1.42l8.8,29.91h-2.77l-1.98-6.97Zm-8.74-2.57h8.03l-3.94-13.79-.08-1.11-.08,1.11-3.92,13.79Z"/>
        <path class="cls-1" d="m71.15,191.37c-.38.89-.91,1.67-1.58,2.34-.67.67-1.45,1.19-2.35,1.57-.9.38-1.85.57-2.87.57h-6.78v11.49h-2.69v-29.91h9.47c1.01,0,1.97.19,2.87.57.9.38,1.68.91,2.35,1.57.67.67,1.19,1.45,1.58,2.35.38.9.57,1.85.57,2.87v3.71c0,1.02-.19,1.97-.57,2.86Zm-2.12-6.57c0-.67-.12-1.29-.38-1.87-.25-.58-.59-1.08-1.03-1.52-.44-.44-.95-.78-1.52-1.03-.58-.25-1.2-.38-1.87-.38h-6.65v13.29h6.65c.67,0,1.29-.13,1.87-.38.58-.25,1.08-.59,1.52-1.02.44-.43.78-.93,1.03-1.51.25-.58.38-1.2.38-1.87v-3.71Z"/>
        <path class="cls-1" d="m75.79,207.35v-29.91h2.69v29.91h-2.69Z"/>
        <path class="cls-1" d="m91.51,180v27.34h-2.69v-27.34h-7.13v-2.57h16.96v2.57h-7.13Z"/>
        <path class="cls-1" d="m111.8,200.38h-9.47l-1.96,6.97h-2.79l8.76-29.91h1.42l8.8,29.91h-2.77l-1.98-6.97Zm-8.74-2.57h8.03l-3.94-13.79-.08-1.11-.08,1.11-3.92,13.79Z"/>
        <path class="cls-1" d="m118.89,207.35v-29.91h2.69v27.35h11.45v2.57h-14.14Z"/>
      </g>
      <path class="cls-1" d="m224.54,224.54H0V0h224.54v224.54Zm-221.84-2.7h219.14V2.7H2.7v219.14Z"/>
    </g>
  </g>
</svg>